<?xml version="1.0" encoding="utf-8"?>
Generator: Adobe Illustrator 26.5.0, SVG Export Plug-In . SVG Version: 6.00 Build 0) 
<svg version="1.1" id="Layer_1" xmlns="http://www.w3.org/2000/svg" xmlns:xlink="http://www.w3.org/1999/xlink" x="0px" y="0px"
	 viewBox="0 0 500 500" style="enable-background:new 0 0 500 500;" xml:space="preserve">
<style type="text/css">
	.st0{fill-rule:evenodd;clip-rule:evenodd;fill:#FFFFFF;}
</style>
<path class="st0" d="M37.1,1.1C20.2,4.4,4.7,19.8,1.1,36.8C0.4,40.3,0,59.4,0,94.3c0,43.7,0.2,53.2,1.5,58.1
	c3.9,14.9,15.5,27.4,30.5,32.7c5.9,2.1,8.5,2.3,34.2,2.7l27.8,0.4v40.4c0,44.8,0,45,6.4,49.8c4.6,3.5,10.2,4.3,14.7,2
	c1.9-0.9,23.9-22.1,48.9-47.1l45.5-45.4l126-0.3l126-0.3l6.4-2.3c7.6-2.8,12.9-6.2,19.4-12.8c5.3-5.4,10.4-14.7,11.4-20.6
	c0.3-2.1,1-4.1,1.5-4.4c0.5-0.3,0.9-24.8,0.9-54.5c0-30.6-0.4-53.8-0.9-53.5c-0.5,0.3-1.2-1.3-1.5-3.5c-1-6.5-6.4-15.8-12.7-22.1
	C479.5,7.3,470.8,2.7,462.1,1C455.4-0.2,43.6-0.2,37.1,1.1 M41.5,32.5c-4.9,1.7-8.1,5.3-9.5,10.5c-0.7,2.7-1,20.3-0.8,53.4
	c0.3,48.1,0.3,49.5,2.4,52.2c1.1,1.5,3.3,3.7,4.8,4.8c2.6,2,4.4,2.1,40.1,2.6c35.8,0.5,37.5,0.6,40.2,2.6c6.1,4.5,6.3,5.9,6.3,38.9
	l0,30l34.8-34.6c29.2-29.1,35.4-34.8,38.8-35.7c2.8-0.8,42.6-1.1,131.6-1.1l127.6,0l3.3-2.2c1.8-1.2,4.2-3.5,5.4-5.1
	c2.1-2.8,2.1-3.6,2.1-54.5c0-50.2-0.1-51.8-2-55.1c-1.1-1.9-3.6-4.4-5.5-5.5c-3.5-2-4.3-2-209.5-2.2C75.7,31.1,44.9,31.3,41.5,32.5
	 M0.5,94c0,30,0.1,42.2,0.3,27.2c0.2-15,0.2-39.5,0-54.5C0.6,51.8,0.5,64,0.5,94 M34,220.6c-14.9,4-28.6,17.9-32.5,32.9
	c-2.3,8.9-2.3,109.2,0,118.1C5.4,386.4,18,399.5,32.8,404c6.2,1.9,9.7,2,132,2h125.6l47,47l47,47h5.4c5.9,0,9.9-2,13.5-6.9
	c1.9-2.5,2-4.4,2.3-44.9l0.3-42.2h27.3c28.6,0,32.8-0.5,41.7-5c9.8-5,20.9-18.7,23.1-28.6c0.7-3,1.6-5.7,2.1-6
	c0.5-0.3,0.8-25,0.8-55c0-30-0.4-54.3-0.8-54c-0.5,0.3-1.4-1.9-2.1-4.9c-2.2-9.8-11.7-21.7-22.2-27.8c-10-5.9-5.9-5.7-131.2-5.7
	c-126.4,0-119.8-0.3-123.7,6.2c-4,6.6-2,18.8,3.6,22.5c2.7,1.7,8.6,1.9,118.5,2.3c115.7,0.5,115.7,0.5,118.5,2.6
	c1.6,1.2,3.7,3.6,4.8,5.5c1.9,3.3,2,5.2,2,54.4s-0.1,51.1-2,54.4c-1.1,1.9-3.3,4.3-4.8,5.5c-2.7,2-4.2,2.1-40,2.6
	c-42.1,0.6-42.1,0.6-45.1,8c-1.4,3.4-1.6,8.7-1.6,33.8v29.7l-34.2-34.1c-18.8-18.8-35.4-34.7-36.8-35.5c-2.1-1.1-25.8-1.4-132.7-1.9
	l-130.2-0.5l-2.8-2.1c-1.6-1.2-3.7-3.6-4.8-5.5c-1.9-3.3-2-5.2-2-54.4s0.1-51.1,2-54.4c3.1-5.2,6.4-7.2,14-8.1
	c10.7-1.3,14.8-5.6,14.8-15.5c0-10.5-5.3-15.5-16.2-15.4C42.5,219.1,37,219.8,34,220.6 M0.5,312.5c0,30.2,0.1,42.8,0.3,27.8
	c0.2-14.9,0.2-39.7,0-55C0.6,270,0.5,282.3,0.5,312.5"/>
</svg>
